<mxfile host="app.diagrams.net" modified="2024-01-23T15:23:54.415Z" agent="Mozilla/5.0 (Windows NT 10.0; Win64; x64) AppleWebKit/537.36 (KHTML, like Gecko) Chrome/120.0.0.0 Safari/537.36" version="22.1.22" etag="nMBkMNuzk-7_THoHlwHE" type="github">
  <diagram name="Page-1" id="Ho9iU7686ryyWjRevuk-">
    <mxGraphModel>
      <root>
        <mxCell id="0" />
        <mxCell id="1" parent="0" />
      </root>
    </mxGraphModel>
  </diagram>
</mxfile>
